<?xml version="1.0" encoding="UTF-8"?>
<svg xmlns="http://www.w3.org/2000/svg" xmlns:xlink="http://www.w3.org/1999/xlink" width="60px" height="58px" viewBox="0 0 59 58" version="1.1">
<g id="surface1">
<path style=" stroke:none;fill-rule:nonzero;fill:rgb(0%,11.764706%,21.176471%);fill-opacity:1;" d="M 10.449219 0 L 48.550781 0 C 54.328125 0 59 4.710938 59 10.535156 L 59 47.464844 C 59 53.289062 54.328125 58 48.550781 58 L 10.449219 58 C 4.671875 58 0 53.289062 0 47.464844 L 0 10.535156 C 0 4.710938 4.671875 0 10.449219 0 Z M 10.449219 0 "/>
<path style=" stroke:none;fill-rule:nonzero;fill:rgb(19.215686%,65.882353%,100%);fill-opacity:1;" d="M 13.273438 40.675781 L 13.273438 15.167969 C 13.273438 14.996094 13.347656 14.898438 13.519531 14.898438 C 13.9375 14.898438 14.332031 14.898438 14.898438 14.871094 C 15.488281 14.847656 16.101562 14.847656 16.765625 14.820312 C 17.429688 14.796875 18.140625 14.796875 18.90625 14.773438 C 19.667969 14.746094 20.402344 14.746094 21.140625 14.746094 C 23.15625 14.746094 24.828125 14.996094 26.207031 15.515625 C 27.433594 15.9375 28.566406 16.632812 29.5 17.546875 C 30.285156 18.34375 30.902344 19.308594 31.292969 20.375 C 31.664062 21.414062 31.859375 22.480469 31.859375 23.597656 C 31.859375 25.726562 31.367188 27.488281 30.386719 28.875 C 29.402344 30.265625 28.023438 31.304688 26.425781 31.898438 C 24.753906 32.519531 22.910156 32.742188 20.894531 32.742188 C 20.304688 32.742188 19.914062 32.742188 19.667969 32.71875 C 19.421875 32.691406 19.078125 32.691406 18.609375 32.691406 L 18.609375 40.648438 C 18.632812 40.824219 18.511719 40.972656 18.339844 40.996094 C 18.316406 40.996094 18.289062 40.996094 18.242188 40.996094 L 13.570312 40.996094 C 13.375 40.996094 13.273438 40.898438 13.273438 40.675781 Z M 18.632812 19.679688 L 18.632812 28.007812 C 18.976562 28.035156 19.296875 28.058594 19.59375 28.058594 L 20.894531 28.058594 C 21.855469 28.058594 22.8125 27.910156 23.722656 27.613281 C 24.507812 27.390625 25.199219 26.917969 25.738281 26.296875 C 26.253906 25.679688 26.5 24.835938 26.5 23.746094 C 26.527344 22.976562 26.328125 22.207031 25.933594 21.539062 C 25.515625 20.894531 24.925781 20.398438 24.214844 20.125 C 23.304688 19.753906 22.320312 19.605469 21.3125 19.628906 C 20.675781 19.628906 20.109375 19.628906 19.640625 19.65625 C 19.152344 19.628906 18.804688 19.65625 18.632812 19.679688 Z M 18.632812 19.679688 "/>
<path style=" stroke:none;fill-rule:nonzero;fill:rgb(19.215686%,65.882353%,100%);fill-opacity:1;" d="M 47.199219 26.496094 C 46.460938 26.101562 45.675781 25.828125 44.839844 25.652344 C 43.929688 25.457031 43.019531 25.332031 42.085938 25.332031 C 41.59375 25.308594 41.078125 25.382812 40.613281 25.503906 C 40.292969 25.578125 40.023438 25.753906 39.847656 26 C 39.726562 26.199219 39.652344 26.445312 39.652344 26.671875 C 39.652344 26.894531 39.75 27.117188 39.898438 27.316406 C 40.121094 27.585938 40.414062 27.808594 40.734375 27.984375 C 41.300781 28.28125 41.890625 28.554688 42.480469 28.800781 C 43.808594 29.246094 45.085938 29.867188 46.265625 30.609375 C 47.078125 31.132812 47.742188 31.824219 48.207031 32.667969 C 48.601562 33.460938 48.796875 34.328125 48.773438 35.222656 C 48.796875 36.386719 48.453125 37.550781 47.816406 38.519531 C 47.125 39.507812 46.167969 40.277344 45.0625 40.722656 C 43.855469 41.246094 42.382812 41.515625 40.613281 41.515625 C 39.480469 41.515625 38.375 41.417969 37.269531 41.195312 C 36.40625 41.046875 35.546875 40.773438 34.761719 40.402344 C 34.589844 40.300781 34.464844 40.128906 34.492188 39.929688 L 34.492188 35.617188 C 34.492188 35.542969 34.515625 35.445312 34.589844 35.394531 C 34.664062 35.34375 34.734375 35.371094 34.808594 35.417969 C 35.769531 35.988281 36.777344 36.386719 37.859375 36.632812 C 38.792969 36.882812 39.777344 37.007812 40.757812 37.007812 C 41.691406 37.007812 42.355469 36.882812 42.800781 36.660156 C 43.191406 36.484375 43.464844 36.0625 43.464844 35.617188 C 43.464844 35.269531 43.265625 34.949219 42.875 34.625 C 42.480469 34.304688 41.667969 33.933594 40.464844 33.460938 C 39.210938 33.015625 38.054688 32.421875 36.972656 31.675781 C 36.210938 31.132812 35.570312 30.414062 35.105469 29.570312 C 34.710938 28.777344 34.515625 27.910156 34.539062 27.042969 C 34.539062 25.976562 34.835938 24.960938 35.375 24.042969 C 35.988281 23.050781 36.898438 22.257812 37.957031 21.761719 C 39.113281 21.167969 40.5625 20.894531 42.308594 20.894531 C 43.316406 20.894531 44.347656 20.96875 45.355469 21.117188 C 46.09375 21.21875 46.808594 21.414062 47.46875 21.6875 C 47.570312 21.710938 47.667969 21.8125 47.714844 21.910156 C 47.742188 22.011719 47.765625 22.109375 47.765625 22.207031 L 47.765625 26.25 C 47.765625 26.347656 47.714844 26.445312 47.640625 26.496094 C 47.421875 26.546875 47.296875 26.546875 47.199219 26.496094 Z M 47.199219 26.496094 "/>
</g>
</svg>
