<?xml version="1.0" encoding="UTF-8"?>
<!DOCTYPE svg PUBLIC "-//W3C//DTD SVG 1.1//EN" "http://www.w3.org/Graphics/SVG/1.1/DTD/svg11.dtd">
<svg xmlns="http://www.w3.org/2000/svg" version="1.1" width="1985px" height="2047px" style="shape-rendering:geometricPrecision; text-rendering:geometricPrecision; image-rendering:optimizeQuality; fill-rule:evenodd; clip-rule:evenodd" xmlns:xlink="http://www.w3.org/1999/xlink">
<g><path style="opacity:0.99" fill="#000000" d="M 1392.5,-0.5 C 1418.83,-0.5 1445.17,-0.5 1471.5,-0.5C 1569.69,4.04853 1662.35,29.2152 1749.5,75C 1818.73,113.415 1877.89,163.915 1927,226.5C 1951.78,260.821 1966.78,299.154 1972,341.5C 1979.06,400.221 1978.39,458.888 1970,517.5C 1953.74,629.525 1925.74,738.525 1886,844.5C 1843.88,959.234 1791.71,1069.07 1729.5,1174C 1745.55,1173.63 1761.55,1172.3 1777.5,1170C 1803.21,1165.92 1828.88,1161.59 1854.5,1157C 1890.16,1151.33 1922.49,1159 1951.5,1180C 1967.97,1194.12 1978.97,1211.62 1984.5,1232.5C 1984.5,1248.17 1984.5,1263.83 1984.5,1279.5C 1978.04,1302.43 1966.87,1322.76 1951,1340.5C 1883.77,1408.2 1802.6,1449.03 1707.5,1463C 1663.35,1470.36 1619.02,1472.2 1574.5,1468.5C 1573.01,1477.12 1571.84,1485.78 1571,1494.5C 1569.86,1576.26 1561.52,1657.26 1546,1737.5C 1536.16,1785.37 1520.16,1831.03 1498,1874.5C 1456.67,1949.79 1394.51,1999.29 1311.5,2023C 1282.26,2031.58 1252.6,2038.25 1222.5,2043C 1092.25,2058.16 1005.08,2004.32 961,1881.5C 944.351,1838.91 933.351,1794.91 928,1749.5C 925.459,1728.55 923.459,1707.55 922,1686.5C 918.68,1632.54 916.346,1578.54 915,1524.5C 863.421,1546.54 809.587,1555.37 753.5,1551C 711.684,1548.37 671.351,1539.37 632.5,1524C 607.941,1513.42 586.775,1498.26 569,1478.5C 504.746,1530.54 435.579,1538.04 361.5,1501C 332.997,1483.63 307.831,1462.13 286,1436.5C 247.447,1387.44 215.447,1334.11 190,1276.5C 144.659,1172.48 107.659,1065.48 79,955.5C 52.2743,856.205 30.2743,755.872 13,654.5C -2.59178,561.775 -2.25844,469.109 14,376.5C 26.5917,308.343 52.5917,246.01 92,189.5C 147.017,117.56 218.517,69.7266 306.5,46C 377.844,28.0705 450.177,22.4038 523.5,29C 612.478,36.929 699.312,55.0956 784,83.5C 860.68,40.9126 943.013,19.9126 1031,20.5C 1083.73,20.8667 1136.07,25.5333 1188,34.5C 1254.94,14.8741 1323.11,3.20746 1392.5,-0.5 Z"/></g>
<g><path style="opacity:1" fill="#fdfefe" d="M 961.5,1532.5 C 961.833,1496.16 961.5,1459.83 960.5,1423.5C 959.893,1423.62 959.56,1423.96 959.5,1424.5C 911.842,1465.97 856.176,1488.14 792.5,1491C 747.149,1493.09 703.149,1486.43 660.5,1471C 640.921,1463.4 624.088,1451.9 610,1436.5C 590.866,1404.54 597.366,1379.04 629.5,1360C 642.468,1352.9 656.135,1347.57 670.5,1344C 695.964,1338.51 721.297,1332.51 746.5,1326C 770.106,1321.12 789.273,1309.29 804,1290.5C 812.953,1278.54 822.287,1266.88 832,1255.5C 832.49,1254.21 832.657,1252.87 832.5,1251.5C 802.76,1250.85 774.093,1245.02 746.5,1234C 737.205,1229.58 727.872,1225.58 718.5,1222C 663.807,1280.35 610.974,1340.18 560,1401.5C 540.457,1425.39 516.624,1443.55 488.5,1456C 457.259,1467.17 426.593,1465.84 396.5,1452C 372.165,1439.35 350.999,1422.52 333,1401.5C 298.569,1359.02 269.903,1312.69 247,1262.5C 211.819,1184.96 182.152,1105.3 158,1023.5C 114.853,881.633 82.5198,737.3 61,590.5C 55.2632,528.995 56.5966,467.662 65,406.5C 74.5708,334.406 100.904,269.406 144,211.5C 195.295,149.741 260.462,110.241 339.5,93C 391.925,81.8644 444.925,77.8644 498.5,81C 599.434,87.527 697.267,108.36 792,143.5C 855.837,101.778 926.004,79.2783 1002.5,76C 1062.98,73.8413 1122.64,79.6746 1181.5,93.5C 1308.93,51.646 1438.6,43.146 1570.5,68C 1698.64,95.6107 1802.8,160.777 1883,263.5C 1901.21,292.133 1911.88,323.466 1915,357.5C 1919.36,410.684 1917.7,463.684 1910,516.5C 1898.26,595.453 1879.93,672.786 1855,748.5C 1801.73,912.528 1728.56,1066.69 1635.5,1211C 1638.04,1214.29 1641.37,1216.62 1645.5,1218C 1668.69,1226.46 1692.69,1230.29 1717.5,1229.5C 1738.57,1228.94 1759.57,1227.44 1780.5,1225C 1808.54,1220.52 1836.54,1215.85 1864.5,1211C 1882.91,1208.14 1899.58,1212.14 1914.5,1223C 1928.48,1237.83 1931.31,1254.66 1923,1273.5C 1917.84,1283.65 1911.51,1292.99 1904,1301.5C 1859.24,1345.48 1806.4,1375.98 1745.5,1393C 1686.97,1407.66 1627.64,1412.66 1567.5,1408C 1555.57,1406.58 1543.91,1404.08 1532.5,1400.5C 1530.77,1406.7 1529.6,1413.03 1529,1419.5C 1518.15,1514.99 1506.15,1610.32 1493,1705.5C 1488.3,1737.09 1482.3,1768.43 1475,1799.5C 1452.8,1883.36 1400.64,1939.2 1318.5,1967C 1280.33,1980.71 1240.99,1989.04 1200.5,1992C 1113.04,1995.04 1048.87,1958.2 1008,1881.5C 993.171,1854.85 983.171,1826.51 978,1796.5C 970.816,1744.4 966.149,1692.07 964,1639.5C 962.834,1603.84 962,1568.17 961.5,1532.5 Z"/></g>
<g><path style="opacity:1" fill="#336791" d="M 1391.5,111.5 C 1476.39,106.746 1558.72,118.913 1638.5,148C 1717.79,179.627 1783.62,229.127 1836,296.5C 1844.75,309.998 1850.75,324.665 1854,340.5C 1861.15,381.272 1862.48,422.272 1858,463.5C 1849.12,550.788 1831.12,636.122 1804,719.5C 1755.14,874.534 1687.47,1020.53 1601,1157.5C 1597.64,1153.64 1594.48,1149.64 1591.5,1145.5C 1618.12,1100.14 1632.95,1051.14 1636,998.5C 1636.67,980.833 1636.67,963.167 1636,945.5C 1631.93,900.099 1627.27,854.766 1622,809.5C 1620.94,781.786 1621.61,754.119 1624,726.5C 1627.59,699.419 1631.59,672.419 1636,645.5C 1638.77,617.239 1640.27,588.905 1640.5,560.5C 1638.78,543.378 1634.95,526.711 1629,510.5C 1581.92,386.116 1506.42,282.616 1402.5,200C 1364.6,170.868 1323.6,146.535 1279.5,127C 1316.61,119.246 1353.94,114.079 1391.5,111.5 Z"/></g>
<g><path style="opacity:1" fill="#336791" d="M 996.5,133.5 C 1198.55,126.622 1360.72,202.956 1483,362.5C 1522.38,414.239 1553.21,470.906 1575.5,532.5C 1542.15,529.692 1508.82,529.859 1475.5,533C 1374.63,549.191 1327.47,608.358 1334,710.5C 1337.47,745.331 1344.81,779.331 1356,812.5C 1373.3,862.73 1394.3,911.397 1419,958.5C 1437.83,994.154 1457.16,1029.49 1477,1064.5C 1489.76,1094.69 1505.09,1123.36 1523,1150.5C 1536.59,1168.68 1550.42,1186.68 1564.5,1204.5C 1513.32,1218.85 1485.16,1252.51 1480,1305.5C 1479.96,1326.88 1478.96,1348.22 1477,1369.5C 1465.95,1472.72 1453.28,1575.72 1439,1678.5C 1434.82,1706.57 1430.16,1734.57 1425,1762.5C 1418.25,1798.64 1403.92,1831.31 1382,1860.5C 1356.85,1887.51 1326.35,1906.01 1290.5,1916C 1256.4,1927.39 1221.4,1933.55 1185.5,1934.5C 1137.67,1934.34 1099.84,1915.01 1072,1876.5C 1050.41,1845.08 1037.08,1810.41 1032,1772.5C 1024.88,1706.02 1020.55,1639.36 1019,1572.5C 1018.44,1483.83 1018.44,1395.16 1019,1306.5C 1013.43,1272.83 997.26,1245.66 970.5,1225C 947.464,1208.93 922.131,1203.09 894.5,1207.5C 903.299,1175.94 913.799,1144.94 926,1114.5C 942.933,1078.97 957.933,1042.63 971,1005.5C 990.191,942.933 997.524,878.933 993,813.5C 989.395,758.113 981.061,703.446 968,649.5C 951.014,591.179 912.847,555.679 853.5,543C 821.629,537.726 789.962,538.726 758.5,546C 716.363,555.546 676.363,570.712 638.5,591.5C 641.969,525.026 654.803,460.359 677,397.5C 697.866,337.393 729.2,283.726 771,236.5C 832.898,173.57 908.064,139.237 996.5,133.5 Z"/></g>
<g><path style="opacity:1" fill="#336791" d="M 434.5,137.5 C 539.031,136.409 640.697,152.742 739.5,186.5C 683.438,245.568 642.938,314.235 618,392.5C 581.736,507.214 569.403,624.548 581,744.5C 583.138,809.84 579.471,874.84 570,939.5C 564.859,1038.49 598.359,1121.49 670.5,1188.5C 617.991,1245.17 567.157,1303.17 518,1362.5C 504.493,1379.01 488.327,1392.18 469.5,1402C 452.854,1408.56 436.52,1407.89 420.5,1400C 403.216,1390.25 388.05,1377.75 375,1362.5C 344.984,1325.18 319.984,1284.51 300,1240.5C 264.287,1161.7 234.287,1080.7 210,997.5C 168.416,858.831 137.416,717.831 117,574.5C 109.989,498.98 116.323,424.647 136,351.5C 171.497,237.342 247.997,168.842 365.5,146C 388.529,142.229 411.529,139.396 434.5,137.5 Z"/></g>
<g><path style="opacity:1" fill="#336791" d="M 1499.5,587.5 C 1526.59,586.793 1553.59,587.96 1580.5,591C 1581.75,593.041 1582.42,595.375 1582.5,598C 1581.42,611.84 1580.25,625.674 1579,639.5C 1570.89,685.014 1565.73,730.848 1563.5,777C 1564.05,797.201 1565.21,817.368 1567,837.5C 1571.87,874.737 1575.87,912.07 1579,949.5C 1581.59,989.737 1576.93,1029.07 1565,1067.5C 1562.05,1076.07 1558.55,1084.41 1554.5,1092.5C 1547.33,1079.18 1540.83,1065.51 1535,1051.5C 1500.07,990.98 1467.74,928.98 1438,865.5C 1422.02,829.898 1409.02,793.231 1399,755.5C 1396.41,742.547 1394.08,729.547 1392,716.5C 1388.36,691.972 1390.36,667.972 1398,644.5C 1407.99,622.851 1424.15,607.684 1446.5,599C 1463.82,592.905 1481.49,589.071 1499.5,587.5 Z"/></g>
<g><path style="opacity:1" fill="#336791" d="M 795.5,597.5 C 814.307,596.707 832.973,597.874 851.5,601C 879.22,609.05 898.386,626.55 909,653.5C 931.911,736.033 940.244,820.033 934,905.5C 929.937,941.223 921.604,975.89 909,1009.5C 898.55,1035.07 887.55,1060.4 876,1085.5C 864.879,1113.53 854.546,1141.86 845,1170.5C 842.376,1177.99 840.543,1185.66 839.5,1193.5C 797.556,1194.02 759.556,1182.18 725.5,1158C 665.162,1112.85 632.329,1052.35 627,976.5C 626.333,966.833 626.333,957.167 627,947.5C 637.301,871.843 640.968,795.843 638,719.5C 636.814,700.486 635.814,681.486 635,662.5C 670.079,637.213 708.579,618.713 750.5,607C 765.546,603.359 780.546,600.192 795.5,597.5 Z"/></g>
<g><path style="opacity:1" fill="#fdfdfd" d="M 1481.5,614.5 C 1493.35,613.904 1505.02,615.071 1516.5,618C 1526.62,620.755 1530.79,627.255 1529,637.5C 1517.7,662.227 1498.53,674.393 1471.5,674C 1455.15,670.949 1442.65,662.449 1434,648.5C 1431.77,639.106 1434.94,631.939 1443.5,627C 1455.57,620.657 1468.24,616.49 1481.5,614.5 Z"/></g>
<g><path style="opacity:1" fill="#fdfefe" d="M 807.5,629.5 C 832.326,626.766 855.66,631.266 877.5,643C 889.129,650.94 891.629,661.106 885,673.5C 866.82,696.226 843.986,702.726 816.5,693C 798.885,684.398 787.552,670.732 782.5,652C 783.069,648.183 783.403,644.349 783.5,640.5C 786.967,640.554 789.634,639.054 791.5,636C 796.744,633.315 802.077,631.148 807.5,629.5 Z"/></g>
<g><path style="opacity:1" fill="#346791" d="M 1592.5,1255.5 C 1594.53,1255.34 1596.53,1255.5 1598.5,1256C 1618.51,1270.46 1640.85,1279.46 1665.5,1283C 1702.81,1287.54 1740.15,1287.54 1777.5,1283C 1803,1279.64 1828.34,1275.64 1853.5,1271C 1813.88,1305.65 1768.21,1328.98 1716.5,1341C 1672.67,1350.68 1628.34,1354.34 1583.5,1352C 1567.42,1351.25 1552.09,1347.59 1537.5,1341C 1533.84,1318.92 1537.34,1298.09 1548,1278.5C 1554.55,1270.62 1562.72,1265.12 1572.5,1262C 1579.38,1260.12 1586.05,1257.95 1592.5,1255.5 Z"/></g>
<g><path style="opacity:1" fill="#346791" d="M 908.5,1262.5 C 932.692,1264.52 949.192,1276.85 958,1299.5C 964.224,1313.68 963.89,1327.68 957,1341.5C 919.501,1395.18 868.001,1425.68 802.5,1433C 763.329,1435.86 724.995,1431.53 687.5,1420C 679.19,1417.1 671.357,1413.26 664,1408.5C 663.544,1407.26 664.044,1406.42 665.5,1406C 672.379,1403.26 679.379,1400.93 686.5,1399C 715.526,1393.44 744.193,1386.44 772.5,1378C 802.482,1369.1 827.315,1352.6 847,1328.5C 862.528,1307.65 879.362,1287.81 897.5,1269C 901.096,1266.54 904.763,1264.37 908.5,1262.5 Z"/></g>
<g><path style="opacity:1" fill="#c0c0c0" d="M 959.5,1424.5 C 959.56,1423.96 959.893,1423.62 960.5,1423.5C 961.5,1459.83 961.833,1496.16 961.5,1532.5C 960.833,1496.5 960.167,1460.5 959.5,1424.5 Z"/></g>
</svg>
