<?xml version="1.0" encoding="UTF-8"?>
<svg xmlns="http://www.w3.org/2000/svg" xmlns:xlink="http://www.w3.org/1999/xlink" width="60px" height="60px" viewBox="0 0 60 60" version="1.1">
<g id="surface1">
<path style=" stroke:none;fill-rule:nonzero;fill:rgb(18.431373%,25.098039%,41.568627%);fill-opacity:1;" d="M 48.449219 19.128906 L 48.449219 40.734375 L 30.089844 51.597656 L 29.921875 51.746094 L 29.921875 59.824219 L 30.089844 59.980469 L 55.945312 45.042969 L 55.945312 14.9375 L 55.703125 14.875 L 48.410156 18.953125 L 48.449219 19.128906 "/>
<path style=" stroke:none;fill-rule:nonzero;fill:rgb(13.72549%,47.45098%,74.117647%);fill-opacity:1;" d="M 11.667969 40.910156 L 30.089844 51.597656 L 30.089844 59.980469 L 4.054688 44.984375 L 4.054688 14.996094 L 4.320312 14.953125 L 11.589844 19.179688 L 11.667969 19.421875 L 11.667969 40.910156 "/>
<path style=" stroke:none;fill-rule:nonzero;fill:rgb(1.176471%,68.627451%,93.72549%);fill-opacity:1;" d="M 11.667969 19.421875 L 4.054688 14.996094 L 30.03125 0 L 55.945312 14.9375 L 48.449219 19.128906 L 30.03125 8.617188 L 11.667969 19.421875 "/>
<path style=" stroke:none;fill-rule:nonzero;fill:rgb(18.431373%,25.098039%,41.568627%);fill-opacity:1;" d="M 29.773438 38.441406 L 29.574219 38.238281 L 29.574219 30.125 L 29.773438 30.019531 L 29.820312 29.820312 L 36.777344 25.761719 L 36.988281 25.808594 L 36.988281 34.171875 L 29.773438 38.441406 "/>
<path style=" stroke:none;fill-rule:nonzero;fill:rgb(13.72549%,47.45098%,74.117647%);fill-opacity:1;" d="M 22.433594 34.429688 L 22.433594 25.75 L 22.636719 25.742188 L 29.710938 29.859375 L 29.773438 30.019531 L 29.773438 38.441406 L 22.433594 34.429688 "/>
<path style=" stroke:none;fill-rule:nonzero;fill:rgb(1.176471%,68.627451%,93.72549%);fill-opacity:1;" d="M 29.652344 21.480469 L 22.433594 25.75 L 29.773438 30.019531 L 36.988281 25.808594 L 29.652344 21.480469 "/>
<path style=" stroke:none;fill-rule:nonzero;fill:rgb(18.431373%,25.098039%,41.568627%);fill-opacity:1;" d="M 20.792969 43.734375 L 20.59375 43.527344 L 20.59375 35.414062 L 20.792969 35.3125 L 20.839844 35.113281 L 27.796875 31.054688 L 28.007812 31.101562 L 28.007812 39.460938 L 20.792969 43.734375 "/>
<path style=" stroke:none;fill-rule:nonzero;fill:rgb(13.72549%,47.45098%,74.117647%);fill-opacity:1;" d="M 13.453125 39.722656 L 13.453125 31.042969 L 13.65625 31.03125 L 20.730469 35.152344 L 20.792969 35.3125 L 20.792969 43.734375 L 13.453125 39.722656 "/>
<path style=" stroke:none;fill-rule:nonzero;fill:rgb(1.176471%,68.627451%,93.72549%);fill-opacity:1;" d="M 20.671875 26.773438 L 13.453125 31.042969 L 20.792969 35.3125 L 28.007812 31.101562 L 20.671875 26.773438 "/>
<path style=" stroke:none;fill-rule:nonzero;fill:rgb(18.431373%,25.098039%,41.568627%);fill-opacity:1;" d="M 39.394531 43.933594 L 39.195312 43.730469 L 39.195312 35.617188 L 39.394531 35.511719 L 39.445312 35.3125 L 46.398438 31.253906 L 46.613281 31.304688 L 46.613281 39.664062 L 39.394531 43.933594 "/>
<path style=" stroke:none;fill-rule:nonzero;fill:rgb(13.72549%,47.45098%,74.117647%);fill-opacity:1;" d="M 32.058594 39.921875 L 32.058594 31.242188 L 32.257812 31.234375 L 39.335938 35.351562 L 39.394531 35.511719 L 39.394531 43.933594 L 32.058594 39.921875 "/>
<path style=" stroke:none;fill-rule:nonzero;fill:rgb(1.176471%,68.627451%,93.72549%);fill-opacity:1;" d="M 39.273438 26.972656 L 32.058594 31.242188 L 39.394531 35.511719 L 46.613281 31.304688 L 39.273438 26.972656 "/>
<path style=" stroke:none;fill-rule:nonzero;fill:rgb(18.431373%,25.098039%,41.568627%);fill-opacity:1;" d="M 30.414062 49.226562 L 30.214844 49.023438 L 30.214844 40.910156 L 30.414062 40.804688 L 30.460938 40.605469 L 37.417969 36.546875 L 37.632812 36.597656 L 37.632812 44.957031 L 30.414062 49.226562 "/>
<path style=" stroke:none;fill-rule:nonzero;fill:rgb(13.72549%,47.45098%,74.117647%);fill-opacity:1;" d="M 23.078125 45.214844 L 23.078125 36.535156 L 23.277344 36.527344 L 30.355469 40.644531 L 30.414062 40.804688 L 30.414062 49.226562 L 23.078125 45.214844 "/>
<path style=" stroke:none;fill-rule:nonzero;fill:rgb(1.176471%,68.627451%,93.72549%);fill-opacity:1;" d="M 30.292969 32.265625 L 23.078125 36.535156 L 30.414062 40.804688 L 37.632812 36.597656 L 30.292969 32.265625 "/>
<path style=" stroke:none;fill-rule:nonzero;fill:rgb(18.431373%,25.098039%,41.568627%);fill-opacity:1;" d="M 29.773438 26.933594 L 29.574219 26.730469 L 29.574219 18.617188 L 29.773438 18.511719 L 29.820312 18.3125 L 36.777344 14.253906 L 36.988281 14.304688 L 36.988281 22.664062 L 29.773438 26.933594 "/>
<path style=" stroke:none;fill-rule:nonzero;fill:rgb(13.72549%,47.45098%,74.117647%);fill-opacity:1;" d="M 22.433594 22.921875 L 22.433594 14.242188 L 22.636719 14.234375 L 29.710938 18.351562 L 29.773438 18.511719 L 29.773438 26.933594 L 22.433594 22.921875 "/>
<path style=" stroke:none;fill-rule:nonzero;fill:rgb(1.176471%,68.627451%,93.72549%);fill-opacity:1;" d="M 29.652344 9.972656 L 22.433594 14.242188 L 29.773438 18.511719 L 36.988281 14.304688 L 29.652344 9.972656 "/>
<path style=" stroke:none;fill-rule:nonzero;fill:rgb(18.431373%,25.098039%,41.568627%);fill-opacity:1;" d="M 20.792969 32.226562 L 20.59375 32.023438 L 20.59375 23.910156 L 20.792969 23.804688 L 20.839844 23.605469 L 27.796875 19.546875 L 28.007812 19.59375 L 28.007812 27.957031 L 20.792969 32.226562 "/>
<path style=" stroke:none;fill-rule:nonzero;fill:rgb(13.72549%,47.45098%,74.117647%);fill-opacity:1;" d="M 13.453125 28.214844 L 13.453125 19.535156 L 13.65625 19.527344 L 20.730469 23.644531 L 20.792969 23.804688 L 20.792969 32.226562 L 13.453125 28.214844 "/>
<path style=" stroke:none;fill-rule:nonzero;fill:rgb(1.176471%,68.627451%,93.72549%);fill-opacity:1;" d="M 20.671875 15.265625 L 13.453125 19.535156 L 20.792969 23.804688 L 28.007812 19.59375 L 20.671875 15.265625 "/>
<path style=" stroke:none;fill-rule:nonzero;fill:rgb(18.431373%,25.098039%,41.568627%);fill-opacity:1;" d="M 39.394531 32.425781 L 39.195312 32.222656 L 39.195312 24.109375 L 39.394531 24.007812 L 39.445312 23.804688 L 46.398438 19.75 L 46.613281 19.796875 L 46.613281 28.15625 L 39.394531 32.425781 "/>
<path style=" stroke:none;fill-rule:nonzero;fill:rgb(13.72549%,47.45098%,74.117647%);fill-opacity:1;" d="M 32.058594 28.417969 L 32.058594 19.734375 L 32.257812 19.726562 L 39.335938 23.84375 L 39.394531 24.007812 L 39.394531 32.425781 L 32.058594 28.417969 "/>
<path style=" stroke:none;fill-rule:nonzero;fill:rgb(1.176471%,68.627451%,93.72549%);fill-opacity:1;" d="M 39.273438 15.464844 L 32.058594 19.734375 L 39.394531 24.007812 L 46.613281 19.796875 L 39.273438 15.464844 "/>
<path style=" stroke:none;fill-rule:nonzero;fill:rgb(18.431373%,25.098039%,41.568627%);fill-opacity:1;" d="M 30.414062 37.71875 L 30.214844 37.515625 L 30.214844 29.402344 L 30.414062 29.296875 L 30.460938 29.097656 L 37.417969 25.042969 L 37.632812 25.089844 L 37.632812 33.449219 L 30.414062 37.71875 "/>
<path style=" stroke:none;fill-rule:nonzero;fill:rgb(13.72549%,47.45098%,74.117647%);fill-opacity:1;" d="M 23.078125 33.710938 L 23.078125 25.027344 L 23.277344 25.019531 L 30.355469 29.136719 L 30.414062 29.296875 L 30.414062 37.71875 L 23.078125 33.710938 "/>
<path style=" stroke:none;fill-rule:nonzero;fill:rgb(1.176471%,68.627451%,93.72549%);fill-opacity:1;" d="M 30.292969 20.757812 L 23.078125 25.027344 L 30.414062 29.296875 L 37.632812 25.089844 L 30.292969 20.757812 "/>
</g>
</svg>
